<mxfile host="app.diagrams.net" modified="2023-11-24T00:18:54.502Z" agent="Mozilla/5.0 (Windows NT 10.0; Win64; x64) AppleWebKit/537.36 (KHTML, like Gecko) Chrome/119.0.0.0 Safari/537.36 Edg/119.0.0.0" etag="N_T8URwUoz5cot8aoD7Z" version="22.1.3" type="device">
  <diagram name="PÃ¡gina-1" id="c554EDfVEi-6qmfFjKQ5">
    <mxGraphModel dx="872" dy="473" grid="1" gridSize="10" guides="1" tooltips="1" connect="1" arrows="1" fold="1" page="1" pageScale="1" pageWidth="827" pageHeight="1169" math="0" shadow="0">
      <root>
        <mxCell id="0" />
        <mxCell id="1" parent="0" />
        <mxCell id="FTI8OKSALVvc5XNV5gT6-3" value="" style="edgeStyle=orthogonalEdgeStyle;rounded=0;orthogonalLoop=1;jettySize=auto;html=1;" edge="1" parent="1" source="FTI8OKSALVvc5XNV5gT6-1" target="FTI8OKSALVvc5XNV5gT6-2">
          <mxGeometry relative="1" as="geometry">
            <Array as="points">
              <mxPoint x="526" y="220" />
            </Array>
          </mxGeometry>
        </mxCell>
        <mxCell id="FTI8OKSALVvc5XNV5gT6-4" value="Cadastro" style="edgeLabel;html=1;align=center;verticalAlign=middle;resizable=0;points=[];" vertex="1" connectable="0" parent="FTI8OKSALVvc5XNV5gT6-3">
          <mxGeometry x="-0.5601" y="-3" relative="1" as="geometry">
            <mxPoint as="offset" />
          </mxGeometry>
        </mxCell>
        <mxCell id="FTI8OKSALVvc5XNV5gT6-1" value="CASA" style="rounded=0;whiteSpace=wrap;html=1;rotation=-88;" vertex="1" parent="1">
          <mxGeometry x="359.99" y="210.35" width="120" height="80" as="geometry" />
        </mxCell>
        <mxCell id="FTI8OKSALVvc5XNV5gT6-8" value="" style="edgeStyle=orthogonalEdgeStyle;rounded=0;orthogonalLoop=1;jettySize=auto;html=1;" edge="1" parent="1" source="FTI8OKSALVvc5XNV5gT6-2" target="FTI8OKSALVvc5XNV5gT6-7">
          <mxGeometry relative="1" as="geometry">
            <Array as="points">
              <mxPoint x="760" y="220" />
              <mxPoint x="760" y="260" />
              <mxPoint x="860" y="260" />
            </Array>
          </mxGeometry>
        </mxCell>
        <mxCell id="FTI8OKSALVvc5XNV5gT6-9" value="Cliente" style="edgeLabel;html=1;align=center;verticalAlign=middle;resizable=0;points=[];" vertex="1" connectable="0" parent="FTI8OKSALVvc5XNV5gT6-8">
          <mxGeometry x="-0.4458" y="-1" relative="1" as="geometry">
            <mxPoint as="offset" />
          </mxGeometry>
        </mxCell>
        <mxCell id="FTI8OKSALVvc5XNV5gT6-12" style="edgeStyle=orthogonalEdgeStyle;rounded=0;orthogonalLoop=1;jettySize=auto;html=1;" edge="1" parent="1" source="FTI8OKSALVvc5XNV5gT6-2" target="FTI8OKSALVvc5XNV5gT6-11">
          <mxGeometry relative="1" as="geometry">
            <Array as="points">
              <mxPoint x="740" y="220" />
              <mxPoint x="740" y="295" />
            </Array>
          </mxGeometry>
        </mxCell>
        <mxCell id="FTI8OKSALVvc5XNV5gT6-13" value="Adm" style="edgeLabel;html=1;align=center;verticalAlign=middle;resizable=0;points=[];" vertex="1" connectable="0" parent="FTI8OKSALVvc5XNV5gT6-12">
          <mxGeometry x="0.2541" y="4" relative="1" as="geometry">
            <mxPoint as="offset" />
          </mxGeometry>
        </mxCell>
        <mxCell id="FTI8OKSALVvc5XNV5gT6-2" value="PAGINA INICIAL" style="whiteSpace=wrap;html=1;rounded=0;rotation=-90;" vertex="1" parent="1">
          <mxGeometry x="615" y="185" width="120" height="70" as="geometry" />
        </mxCell>
        <mxCell id="FTI8OKSALVvc5XNV5gT6-5" style="edgeStyle=orthogonalEdgeStyle;rounded=0;orthogonalLoop=1;jettySize=auto;html=1;entryX=0.025;entryY=0.883;entryDx=0;entryDy=0;entryPerimeter=0;" edge="1" parent="1" source="FTI8OKSALVvc5XNV5gT6-1" target="FTI8OKSALVvc5XNV5gT6-2">
          <mxGeometry relative="1" as="geometry" />
        </mxCell>
        <mxCell id="FTI8OKSALVvc5XNV5gT6-6" value="Login" style="edgeLabel;html=1;align=center;verticalAlign=middle;resizable=0;points=[];" vertex="1" connectable="0" parent="FTI8OKSALVvc5XNV5gT6-5">
          <mxGeometry x="-0.6759" y="-2" relative="1" as="geometry">
            <mxPoint as="offset" />
          </mxGeometry>
        </mxCell>
        <mxCell id="FTI8OKSALVvc5XNV5gT6-7" value="&lt;font&gt;1-olhar os animes e assistir os animes&lt;br&gt;&lt;br&gt;&lt;br&gt;&lt;/font&gt;" style="ellipse;whiteSpace=wrap;html=1;rounded=0;" vertex="1" parent="1">
          <mxGeometry x="820" y="130.35" width="80" height="79.65" as="geometry" />
        </mxCell>
        <mxCell id="FTI8OKSALVvc5XNV5gT6-11" value="&lt;font&gt;Cadastro&amp;nbsp;&lt;/font&gt;&lt;font&gt;De Animes&lt;br&gt;&lt;/font&gt;" style="ellipse;whiteSpace=wrap;html=1;aspect=fixed;" vertex="1" parent="1">
          <mxGeometry x="820" y="255" width="80" height="80" as="geometry" />
        </mxCell>
      </root>
    </mxGraphModel>
  </diagram>
</mxfile>
